<?xml version="1.0" encoding="UTF-8" standalone="no"?>
<svg
   xmlns:dc="http://purl.org/dc/elements/1.1/"
   xmlns:cc="http://creativecommons.org/ns#"
   xmlns:rdf="http://www.w3.org/1999/02/22-rdf-syntax-ns#"
   xmlns:svg="http://www.w3.org/2000/svg"
   xmlns="http://www.w3.org/2000/svg"
   xmlns:sodipodi="http://sodipodi.sourceforge.net/DTD/sodipodi-0.dtd"
   xmlns:inkscape="http://www.inkscape.org/namespaces/inkscape"
   viewBox="0 0 24 24"
   width="24"
   height="24"
   version="1.1"
   id="svg6"
   sodipodi:docname="furniture.svg"
   inkscape:version="1.0 (6e3e5246a0, 2020-05-07)">
  <metadata
     id="metadata12">
    <rdf:RDF>
      <cc:Work
         rdf:about="">
        <dc:format>image/svg+xml</dc:format>
        <dc:type
           rdf:resource="http://purl.org/dc/dcmitype/StillImage" />
      </cc:Work>
    </rdf:RDF>
  </metadata>
  <defs
     id="defs10" />
  <sodipodi:namedview
     inkscape:document-rotation="0"
     pagecolor="#ffffff"
     bordercolor="#666666"
     borderopacity="1"
     objecttolerance="10"
     gridtolerance="10"
     guidetolerance="10"
     inkscape:pageopacity="0"
     inkscape:pageshadow="2"
     inkscape:window-width="1366"
     inkscape:window-height="704"
     id="namedview8"
     showgrid="false"
     inkscape:zoom="11.625"
     inkscape:cx="14.751177"
     inkscape:cy="16.19035"
     inkscape:window-x="0"
     inkscape:window-y="27"
     inkscape:window-maximized="1"
     inkscape:current-layer="svg6" />
  <path
     fill="none"
     d="M0 0h24v24H0z"
     id="path2" />
  <path
     d="m 18.072817,21.000272 c -0.702831,0.0116 -1.043716,-0.605137 -1.004939,-1.145768 L 17,10 h 5 v 10 c 0,0.552285 -0.447715,0.999949 -1,1 z M 6.1534485,20.97553 3,21 C 2.4477319,21.004286 2,20.552285 2,20 V 10 h 5 l 0.060789,9.990298 C 7.054969,20.43514 6.7294111,20.986418 6.1534485,20.97553 Z M 22,8 H 2 V 4 C 2,3.4477153 2.4477153,3 3,3 h 18 c 0.552285,0 1,0.4477153 1,1 z"
     fill="rgba(91,79,219,1)"
     id="path4"
     sodipodi:nodetypes="ccccssccssccccccssssc" />
</svg>
